<svg width="48" height="48" viewBox="0 0 48 48" fill="none" xmlns="http://www.w3.org/2000/svg">
<path fill-rule="evenodd" clip-rule="evenodd" d="M24 48C37.2548 48 48 37.2548 48 24C48 10.7452 37.2548 0 24 0C10.7452 0 0 10.7452 0 24C0 37.2548 10.7452 48 24 48ZM24 44.9107C35.5488 44.9107 44.9109 35.5485 44.9109 23.9998C44.9109 12.451 35.5488 3.08887 24 3.08887C12.4512 3.08887 3.08911 12.451 3.08911 23.9998C3.08911 35.5485 12.4512 44.9107 24 44.9107Z" fill="#444444"/>
<ellipse cx="23.9996" cy="24" rx="1.54455" ry="1.06931" fill="#444444"/>
<path d="M27.9282 15.4787C26.0256 17.4076 25.2406 20.1485 25.1518 21.3466C25.2244 21.5199 25.5729 21.1363 25.8316 20.8785C26.2196 20.492 27.2383 18.9857 28.6718 17.4483C30.1053 15.9109 32.3355 14.6712 33.4344 14.2312C34.5333 13.7913 37.0435 13.9006 37.0747 14.3153C36.7253 16.0096 33.4243 17.2702 31.8426 17.6273C30.261 17.9843 29.5915 17.7963 29.9737 18.125C31.2296 18.9839 34.47 18.5023 35.8606 17.9809C37.2512 17.4594 40.0116 15.3458 40.6646 14.5223C41.3177 13.6989 42.1306 12.6251 41.7159 12.6562C39.4855 11.5131 36.8434 11.2349 34.6101 11.6409C32.3768 12.0468 30.5301 12.8408 27.9282 15.4787Z" fill="#444444"/>
<path d="M32.4344 19.8322C29.7359 20.0747 27.3656 21.6591 26.5236 22.5161C26.467 22.6953 26.9809 22.6277 27.3448 22.5982C27.8907 22.5539 29.6416 22.0628 31.729 21.8159C33.8165 21.569 36.3197 22.0641 37.4425 22.4385C38.5654 22.8128 40.4105 24.5185 40.1663 24.8551C38.8047 25.9223 35.471 24.7511 34.0332 24.0015C32.5954 23.2519 32.206 22.6758 32.2852 23.1736C32.6887 24.6407 35.4728 26.3671 36.8709 26.8679C38.2691 27.3686 41.7416 27.5394 42.7721 27.333C43.8026 27.1266 45.117 26.8325 44.7804 26.5883C43.8169 24.2745 41.9804 22.3548 40.0137 21.2214C38.047 20.088 36.1246 19.5005 32.4344 19.8322Z" fill="#444444"/>
<path d="M32.837 26.3329C30.5751 24.8415 27.7339 24.6041 26.5414 24.7499C26.3855 24.8547 26.8296 25.122 27.1326 25.3257C27.5872 25.6311 29.2628 26.3378 31.0494 27.4452C32.8361 28.5525 34.4856 30.4993 35.1307 31.4917C35.7758 32.4841 36.1564 34.9678 35.7557 35.079C34.0258 35.0655 32.1477 32.0724 31.4901 30.5903C30.8325 29.1082 30.8868 28.415 30.6386 28.8537C30.0402 30.2526 31.1423 33.3376 31.9241 34.6004C32.7058 35.8631 35.3155 38.1601 36.2502 38.6407C37.1849 39.1212 38.3962 39.71 38.2851 39.3093C38.973 36.8992 38.7324 34.2534 37.9002 32.1416C37.0679 30.0298 35.9302 28.3726 32.837 26.3329Z" fill="#444444"/>
<path d="M29.0197 31.4735C28.2035 28.8901 26.1471 26.9152 25.1294 26.2768C24.9423 26.26 25.1186 26.7474 25.2255 27.0965C25.386 27.6202 26.2416 29.2248 26.9309 31.2105C27.6202 33.1963 27.6741 35.7474 27.5495 36.9245C27.425 38.1016 26.1552 40.2698 25.774 40.1035C24.4394 39.0029 24.8675 35.4954 25.2909 33.9302C25.7144 32.365 26.1935 31.8611 25.7242 32.0453C24.378 32.7543 23.2895 35.8441 23.1007 37.3172C22.9118 38.7903 23.4905 42.2185 23.9134 43.1806C24.3362 44.1428 24.9057 45.3633 25.0719 44.9822C27.1249 43.5444 28.6055 41.3386 29.2902 39.1744C29.9749 37.0102 30.136 35.0065 29.0197 31.4735Z" fill="#444444"/>
<path d="M22.8501 32.7825C23.8802 30.2767 23.5685 27.4427 23.1968 26.3002C23.064 26.1674 22.8868 26.6544 22.745 26.9909C22.5324 27.4956 22.1601 29.2755 21.4158 31.2414C20.6715 33.2072 19.0771 35.1994 18.2268 36.0228C17.3765 36.8462 15.0119 37.6959 14.826 37.3239C14.5075 35.6236 17.085 33.2065 18.4135 32.2769C19.7421 31.3473 20.4328 31.2677 19.9546 31.1082C18.4669 30.7891 15.6505 32.4623 14.561 33.4717C13.4716 34.481 11.7176 37.4827 11.4251 38.4922C11.1327 39.5017 10.7871 40.8034 11.159 40.6175C13.6563 40.8306 16.2069 40.0872 18.12 38.8655C20.0331 37.6438 21.4414 36.2094 22.8501 32.7825Z" fill="#444444"/>
<path d="M17.4376 30.1352C19.8316 28.8666 21.4034 26.4879 21.8478 25.3718C21.8306 25.1847 21.383 25.4459 21.0589 25.6141C20.5727 25.8663 19.1487 26.9972 17.3197 28.0332C15.4908 29.0692 12.9911 29.5821 11.8109 29.6718C10.6306 29.7615 8.26903 28.9034 8.36385 28.4985C9.20584 26.9873 12.733 26.7761 14.3489 26.9104C15.9648 27.0448 16.5469 27.4251 16.2811 26.9968C15.341 25.8004 12.1056 25.2868 10.6226 25.3666C9.13958 25.4464 5.87192 26.6337 5.00174 27.2231C4.13156 27.8124 3.03368 28.5926 3.43857 28.6874C5.22286 30.4475 7.65951 31.5062 9.91165 31.7896C12.1638 32.0729 14.1637 31.8701 17.4376 30.1352Z" fill="#444444"/>
<path d="M15.0171 24.5514C17.6636 25.1313 20.4006 24.3327 21.4613 23.7685C21.5691 23.6146 21.0587 23.5246 20.7027 23.4433C20.1688 23.3215 18.3512 23.2635 16.2861 22.8715C14.221 22.4795 11.9824 21.2548 11.024 20.5601C10.0656 19.8655 8.81868 17.6841 9.15277 17.4365C10.7721 16.828 13.5996 18.9471 14.7456 20.0943C15.8915 21.2415 16.0897 21.908 16.1638 21.4094C16.22 19.8889 14.0837 17.4053 12.9007 16.5075C11.7177 15.6096 8.45727 14.4028 7.41235 14.2899C6.36743 14.1769 5.02549 14.0623 5.27309 14.3964C5.49642 16.8928 6.67091 19.2758 8.20592 20.948C9.74092 22.6202 11.3978 23.7584 15.0171 24.5514Z" fill="#444444"/>
<path d="M16.4857 18.7273C18.1669 20.8519 20.791 21.9669 21.9692 22.2017C22.1501 22.1509 21.812 21.7581 21.588 21.4698C21.2518 21.0374 19.8818 19.8417 18.5316 18.2307C17.1814 16.6196 16.2242 14.2543 15.9222 13.1098C15.6202 11.9653 16.0363 9.48733 16.4517 9.50723C18.0904 10.0616 18.9371 13.4922 19.0977 15.1057C19.2582 16.7191 18.9896 17.3605 19.3627 17.0215C20.369 15.8803 20.288 12.6053 19.9409 11.1613C19.5938 9.71728 17.8343 6.71873 17.097 5.96971C16.3598 5.22069 15.3937 4.28228 15.3738 4.69765C13.966 6.77125 13.3661 9.35937 13.4954 11.6256C13.6247 13.8918 14.1865 15.8219 16.4857 18.7273Z" fill="#444444"/>
<path d="M21.5333 15.0648C21.3458 17.7676 22.5351 20.3587 23.2481 21.3257C23.416 21.4099 23.4307 20.8919 23.4591 20.5279C23.5017 19.9818 23.2938 18.1753 23.3804 16.0751C23.4669 13.9749 24.3518 11.5816 24.8991 10.5321C25.4465 9.48254 27.4226 7.93065 27.7163 8.22504C28.5546 9.73826 26.8707 12.8447 25.903 14.1458C24.9353 15.4468 24.3049 15.7401 24.809 15.7407C26.3214 15.5745 28.4666 13.0987 29.1823 11.7973C29.8979 10.496 30.6161 7.0943 30.5753 6.04409C30.5346 4.99388 30.4521 3.64959 30.1577 3.94328C27.7207 4.52848 25.5346 6.03812 24.1043 7.8007C22.674 9.56327 21.7897 11.3685 21.5333 15.0648Z" fill="#444444"/>
</svg>
