<svg width="11" height="20" viewBox="0 0 11 20" fill="none" xmlns="http://www.w3.org/2000/svg">
  <path d="M10.9167 9.99967C10.9167 9.77745 10.875 9.5619 10.7917 9.35301C10.7083 9.14412 10.5972 8.97078 10.4583 8.83301L2.79167 1.16634C2.48611 0.860785 2.09722 0.708008 1.625 0.708008C1.15278 0.708008 0.763888 0.860785 0.458333 1.16634C0.152777 1.4719 5.03895e-08 1.86079 7.1031e-08 2.33301C9.16725e-08 2.80523 0.152777 3.19412 0.458333 3.49967L6.95833 9.99967L0.458333 16.4997C0.152778 16.8052 7.20631e-07 17.1941 7.41272e-07 17.6663C7.61914e-07 18.1386 0.152778 18.5275 0.458333 18.833C0.763889 19.1386 1.15278 19.2913 1.625 19.2913C2.09722 19.2913 2.48611 19.1386 2.79167 18.833L10.4583 11.1663C10.625 10.9997 10.7433 10.8191 10.8133 10.6247C10.8833 10.4302 10.9178 10.2219 10.9167 9.99967Z" fill="#8A85C5" />
</svg>