<svg width="11" height="20" viewBox="0 0 11 20" fill="none" xmlns="http://www.w3.org/2000/svg">
  <path d="M0.0833326 9.99967C0.0833326 9.77745 0.125001 9.5619 0.208335 9.35301C0.291668 9.14412 0.402778 8.97078 0.541668 8.83301L8.20833 1.16634C8.51389 0.860785 8.90278 0.708008 9.375 0.708008C9.84722 0.708008 10.2361 0.860785 10.5417 1.16634C10.8472 1.4719 11 1.86079 11 2.33301C11 2.80523 10.8472 3.19412 10.5417 3.49967L4.04167 9.99967L10.5417 16.4997C10.8472 16.8052 11 17.1941 11 17.6663C11 18.1386 10.8472 18.5275 10.5417 18.833C10.2361 19.1386 9.84722 19.2913 9.375 19.2913C8.90278 19.2913 8.51389 19.1386 8.20833 18.833L0.541667 11.1663C0.375001 10.9997 0.256667 10.8191 0.186667 10.6247C0.116666 10.4302 0.0822216 10.2219 0.0833326 9.99967Z" fill="#8A85C5" />
</svg>