<svg width="121" height="120" viewBox="0 0 121 120" fill="none" xmlns="http://www.w3.org/2000/svg">
  <rect x="0.75" width="120" height="120" rx="60" fill="#8A85C5" />
  <path d="M57.0577 74.1874L57.0578 74.1875C57.5113 74.5692 57.8418 75.1043 58.0089 75.7098C58.176 76.3153 58.1732 76.9664 58.0008 77.5701C58.0007 77.5701 58.0007 77.5702 58.0007 77.5702L57.2209 80.3045L59.1516 78.6703C59.1517 78.6702 59.1518 78.6701 59.1518 78.6701C59.6001 78.2889 60.1471 78.0783 60.7146 78.0783C61.2821 78.0783 61.8291 78.2889 62.2774 78.6701L57.0577 74.1874ZM57.0577 74.1874L54.9773 72.4392M57.0577 74.1874L54.9773 72.4392M64.281 80.371L62.2776 78.6703L64.281 80.371ZM64.281 80.371L63.5028 77.5608C63.5028 77.5607 63.5028 77.5606 63.5027 77.5605C63.3345 76.9584 63.3346 76.3104 63.5029 75.7083C63.6713 75.1063 64.0012 74.5746 64.4529 74.1952C64.453 74.1951 64.453 74.1951 64.453 74.1951L66.538 72.4392L64.0019 72.4392C64.0018 72.4392 64.0016 72.4392 64.0015 72.4392H64.0011V72.1392L64.281 80.371ZM60.7135 59.7C60.1465 59.6993 59.5997 59.9088 59.1512 60.2888C58.7035 60.6683 58.3765 61.1978 58.2095 61.7967C58.2094 61.7967 58.2094 61.7968 58.2094 61.7969L56.4843 67.9522H51.1027C50.5312 67.9458 49.9787 68.1533 49.5255 68.5346C49.0726 68.9155 48.7423 69.4494 48.5748 70.0538C48.4072 70.6582 48.4091 71.3084 48.5802 71.9115C48.7511 72.5141 49.0842 73.0452 49.5388 73.4226C49.5392 73.4229 49.5396 73.4232 49.54 73.4236L53.9853 77.1837L52.2475 83.2819C52.2474 83.2824 52.2473 83.2829 52.2471 83.2833C52.0695 83.8853 52.0612 84.5366 52.2234 85.1441C52.3857 85.752 52.7121 86.2911 53.1629 86.6777C53.6146 87.0651 54.1676 87.2785 54.7413 87.2768C55.3143 87.2751 55.8656 87.0587 56.3152 86.6695C56.3157 86.6691 56.3162 86.6686 56.3166 86.6682L60.7153 82.9476L65.1395 86.6938C65.1399 86.6941 65.1403 86.6945 65.1408 86.6949C65.5888 87.0818 66.1376 87.2972 66.7081 87.3C67.2792 87.3027 67.8302 87.0921 68.2814 86.7086C68.7317 86.3259 69.0593 85.7914 69.2246 85.1874C69.3897 84.5838 69.3861 83.9354 69.2143 83.3343C69.2142 83.3338 69.2141 83.3334 69.214 83.333L67.5158 77.1963L71.9756 73.4202C71.9758 73.4201 71.9759 73.42 71.9761 73.4199C72.428 73.0395 72.7579 72.5066 72.9255 71.9034C73.0932 71.3003 73.0921 70.6515 72.9224 70.0491C72.7566 69.4475 72.4296 68.9152 71.9808 68.5338L70.413 68.2425V67.9425H70.4127H64.9433L63.2214 61.7947C63.2214 61.7947 63.2214 61.7946 63.2214 61.7946C63.0538 61.1954 62.7262 60.6658 62.2776 60.2867C61.8284 59.9069 61.2809 59.6982 60.7135 59.7ZM60.7135 59.7C60.7137 59.7 60.714 59.7 60.7143 59.7L60.7138 60L60.7127 59.7C60.713 59.7 60.7132 59.7 60.7135 59.7ZM54.9773 72.4392H57.4311H57.4314V72.1392C57.9237 72.1407 58.4037 71.9596 58.8024 71.6219C59.201 71.2842 59.4979 70.8073 59.6501 70.2598L59.939 70.3408L59.939 70.3406C59.9391 70.3405 59.9391 70.3404 59.9391 70.3402L60.717 67.5645L61.4951 70.3424L54.9773 72.4392Z" fill="white" stroke="#8A85C5" stroke-width="0.6" />
  <path d="M39.45 74.9984V74.9984C39.4503 79.007 40.5815 82.9341 42.7136 86.3285C44.8457 89.7228 47.8922 92.4468 51.5029 94.1872C55.1136 95.9276 59.1421 96.614 63.1253 96.1673C67.1086 95.7207 70.8851 94.1592 74.0207 91.6622L74.2555 91.4752L74.0684 91.2405L71.8713 88.4847L71.6837 88.2494L71.449 88.4378C68.4164 90.8712 64.641 92.1907 60.7529 92.1759H60.7518C57.3546 92.1759 54.0338 91.1685 51.2092 89.281C48.3846 87.3935 46.183 84.7108 44.883 81.572C43.583 78.4332 43.2428 74.9794 43.9056 71.6473C44.5683 68.3151 46.2042 65.2544 48.6064 62.8521C51.0085 60.4498 54.069 58.8138 57.4009 58.151C60.7327 57.4882 64.1863 57.8283 67.3248 59.1285C70.4633 60.4286 73.1459 62.6303 75.0333 65.4551C76.9206 68.2799 77.928 71.601 77.928 74.9984L77.928 74.9996C77.9437 78.9325 76.5938 82.7488 74.1087 85.7968L74.107 85.799C73.9557 85.9881 73.797 86.1745 73.6357 86.3567L73.4364 86.5817L73.6618 86.7805L76.3046 89.1117L76.5299 89.3104L76.7284 89.0848C76.9281 88.8577 77.1231 88.6276 77.3134 88.3945L77.3143 88.3934C79.4566 85.7432 80.9318 82.6177 81.6161 79.2793C82.3004 75.9408 82.1738 72.4869 81.2469 69.2075C80.3201 65.9282 78.62 62.919 76.2894 60.4328C73.9588 57.9466 71.0658 56.0559 67.8533 54.9194C64.6408 53.7829 61.2024 53.4339 57.8271 53.9015C54.4517 54.3692 51.2378 55.6399 48.4552 57.607C45.6726 59.5741 43.4025 62.1801 41.8355 65.2063C40.2686 68.2325 39.4505 71.5905 39.45 74.9984Z" fill="white" stroke="#8A85C5" stroke-width="0.6" />
  <path d="M51.2471 37.6772L51.0129 37.8771L48.2171 40.2634L47.9948 40.4532L47.7993 40.2358L27.9872 18.2066L27.9871 18.2065C27.713 17.9016 27.5341 17.5252 27.4729 17.1223C27.4117 16.7192 27.471 16.3078 27.6433 15.9374C27.8155 15.567 28.093 15.2541 28.4415 15.0351C28.7899 14.8161 29.1949 14.7001 29.6081 14.7H29.6081H46.71C46.9996 14.7 47.2864 14.757 47.5533 14.8677C47.8202 14.9785 48.0619 15.1409 48.2637 15.3455L51.2471 37.6772ZM51.2471 37.6772L51.0412 37.4483L34.3785 18.9238H45.7945L56.7947 30.0684L57.0004 30.2768L57.2137 30.0763L59.8923 27.5596L60.1165 27.349L59.9004 27.1302L48.2638 15.3456L51.2471 37.6772ZM50.3043 40.9828L50.3329 41.0072C50.1059 41.3411 49.9802 41.7343 49.9754 42.1407H49.9753V42.1443V48.6162C43.8806 51.0187 38.8186 55.3986 35.6481 61.0209C32.4442 66.7023 31.373 73.2957 32.6198 79.6651C33.8666 86.0344 37.3529 91.7788 42.4761 95.9098C47.5992 100.041 54.0386 102.3 60.6851 102.3C67.3317 102.3 73.7711 100.041 78.8942 95.9098C84.0174 91.7788 87.5037 86.0344 88.7505 79.6651C89.9973 73.2957 88.9261 66.7023 85.7222 61.0209C82.5517 55.3986 77.4897 51.0187 71.395 48.6162V42.9383L93.5156 18.2023L93.292 18.0023L93.5157 18.2023C93.7886 17.897 93.9664 17.5206 94.0267 17.118C94.087 16.7152 94.027 16.3043 93.8544 15.9346C93.6818 15.5649 93.4043 15.2526 93.056 15.0341C92.7078 14.8157 92.3032 14.7 91.8904 14.7H74.7886C74.4813 14.7 74.1773 14.7641 73.8971 14.8884C73.6168 15.0127 73.3665 15.1943 73.1633 15.4215L50.509 40.7539L50.3043 40.9828ZM60.6901 46.5589L60.6876 46.5589C58.5354 46.5678 56.3915 46.8143 54.2968 47.2935V44.2562H67.0809V47.2935C64.9863 46.8143 62.8424 46.5678 60.6901 46.5589ZM56.8907 40.0324L75.763 18.9238H87.1339L68.2616 40.0324H56.8907ZM84.9411 74.4166C84.9411 79.0891 83.5196 83.6574 80.8555 87.5437C78.1912 91.4301 74.4036 94.4604 69.9707 96.2501C65.5378 98.0397 60.6595 98.508 55.9532 97.5954C51.2468 96.6827 46.9248 94.4305 43.5334 91.1245C40.142 87.8185 37.8334 83.6076 36.8984 79.0244C35.9634 74.4414 36.4435 69.6909 38.2786 65.3734C40.1136 61.0558 43.2216 57.3644 47.2105 54.7668C51.1995 52.1692 55.8899 50.7824 60.6885 50.7827C67.1213 50.7898 73.2869 53.284 77.833 57.7156C82.379 62.1469 84.9343 68.1534 84.9411 74.4166Z" fill="white" stroke="#8A85C5" stroke-width="0.6" />
</svg>