<svg width="121" height="120" viewBox="0 0 121 120" fill="none" xmlns="http://www.w3.org/2000/svg">
  <rect x="0.5" width="120" height="120" rx="60" fill="#8A85C5" />
  <mask id="path-2-outside-1_1253_305" maskUnits="userSpaceOnUse" x="17.5005" y="11" width="83" height="83" fill="black">
    <rect fill="white" x="17.5005" y="11" width="83" height="83" />
    <path d="M94.2747 82.54V60.3126C94.2747 59.9659 94.137 59.6333 93.892 59.3881C93.647 59.1429 93.3147 59.0051 92.9682 59.0051H75.5532C75.7372 58.422 75.7776 57.8029 75.6708 57.2008L73.3715 43.8513L82.7387 34.4896C83.2439 33.9878 83.5977 33.3537 83.7594 32.66C83.9212 31.9662 83.8844 31.2409 83.6532 30.5671C83.4419 29.9172 83.0536 29.3392 82.532 28.898C82.0104 28.4569 81.3762 28.1701 80.7006 28.0698L67.8844 26.3178L62.2927 14.0796C62.0022 13.4581 61.5407 12.9323 60.9622 12.564C60.3837 12.1956 59.7123 12 59.0266 12C58.341 12 57.6695 12.1956 57.0911 12.564C56.5126 12.9323 56.051 13.4581 55.7605 14.0796L50.1166 26.3178L37.3265 28.1091C36.6509 28.2093 36.0167 28.4961 35.4951 28.9373C34.9735 29.3784 34.5852 29.9565 34.3739 30.6064C34.1427 31.2801 34.1059 32.0055 34.2677 32.6992C34.4294 33.3929 34.7832 34.027 35.2884 34.5289L44.6295 43.8513L42.3302 57.2008C42.2234 57.8029 42.2637 58.422 42.4477 59.0051H25.0327C24.6863 59.0051 24.354 59.1429 24.1089 59.3881C23.8639 59.6333 23.7263 59.9659 23.7263 60.3126V64.2351C23.7263 64.5819 23.8639 64.9145 24.1089 65.1597C24.354 65.4049 24.6863 65.5426 25.0327 65.5426C25.3792 65.5426 25.7115 65.4049 25.9565 65.1597C26.2016 64.9145 26.3392 64.5819 26.3392 64.2351V61.6201H91.6618V82.54H82.5166C82.1701 82.54 81.8378 82.6778 81.5928 82.923C81.3478 83.1682 81.2102 83.5008 81.2102 83.8475C81.2102 84.1943 81.3478 84.5269 81.5928 84.7721C81.8378 85.0173 82.1701 85.155 82.5166 85.155H94.2747C94.9677 85.155 95.6323 85.4305 96.1223 85.9209C96.6123 86.4114 96.8876 87.0765 96.8876 87.77V90.385H21.1134V87.77C21.1134 87.0765 21.3887 86.4114 21.8787 85.9209C22.3687 85.4305 23.0333 85.155 23.7263 85.155H73.3715C73.7179 85.155 74.0502 85.0173 74.2953 84.7721C74.5403 84.5269 74.6779 84.1943 74.6779 83.8475C74.6779 83.5008 74.5403 83.1682 74.2953 82.923C74.0502 82.6778 73.7179 82.54 73.3715 82.54H26.3392V68.1576C26.3392 67.8108 26.2016 67.4783 25.9565 67.2331C25.7115 66.9879 25.3792 66.8501 25.0327 66.8501C24.6863 66.8501 24.354 66.9879 24.1089 67.2331C23.8639 67.4783 23.7263 67.8108 23.7263 68.1576V82.54C22.3403 82.54 21.0111 83.0911 20.0311 84.0719C19.0511 85.0527 18.5005 86.3829 18.5005 87.77V91.6925C18.5005 92.0393 18.6381 92.3718 18.8831 92.6171C19.1281 92.8623 19.4604 93 19.8069 93H98.194C98.5405 93 98.8728 92.8623 99.1178 92.6171C99.3628 92.3718 99.5005 92.0393 99.5005 91.6925V87.77C99.5005 86.3829 98.9499 85.0527 97.9699 84.0719C96.9899 83.0911 95.6607 82.54 94.2747 82.54ZM51.4623 59.0051L59.0005 54.7427L66.5387 59.0051H51.4623ZM72.6398 58.8221C72.4918 58.9239 72.3164 58.9783 72.1369 58.9783C71.9573 58.9783 71.7819 58.9239 71.6339 58.8221L59.6407 52.0493C59.442 51.9345 59.2168 51.8741 58.9874 51.8741C58.7581 51.8741 58.5328 51.9345 58.3342 52.0493L46.3671 58.8744C46.2191 58.9762 46.0437 59.0306 45.8641 59.0306C45.6845 59.0306 45.5092 58.9762 45.3611 58.8744C45.1773 58.7454 45.0358 58.5648 44.9544 58.3553C44.873 58.1459 44.8554 57.9171 44.9039 57.6977L47.3469 43.6682C47.3829 43.4612 47.3684 43.2484 47.3047 43.0482C47.241 42.8479 47.13 42.6659 46.9811 42.5176L37.1305 32.6722C36.9585 32.5155 36.8351 32.3127 36.7749 32.0879C36.7147 31.8631 36.7202 31.6257 36.7908 31.4039C36.8459 31.2148 36.9539 31.0454 37.102 30.9156C37.2502 30.7859 37.4323 30.7013 37.6269 30.6717L51.1618 28.7759C51.3784 28.7458 51.584 28.6619 51.7597 28.5317C51.9355 28.4014 52.0758 28.2292 52.1677 28.0306L58.086 15.1649C58.162 14.985 58.2892 14.8315 58.4519 14.7236C58.6145 14.6157 58.8053 14.5582 59.0005 14.5582C59.1956 14.5582 59.3864 14.6157 59.5491 14.7236C59.7117 14.8315 59.839 14.985 59.915 15.1649L65.8071 28.0306C65.8991 28.2292 66.0393 28.4014 66.2151 28.5317C66.3909 28.6619 66.5965 28.7458 66.8131 28.7759L80.3087 30.6717C80.5033 30.7013 80.6855 30.7859 80.8336 30.9156C80.9818 31.0454 81.0898 31.2148 81.1448 31.4039C81.2156 31.6144 81.2274 31.8401 81.179 32.0568C81.1307 32.2734 81.024 32.4727 80.8705 32.633L71.0198 42.4784C70.8709 42.6267 70.76 42.8086 70.6963 43.0089C70.6326 43.2092 70.6181 43.4219 70.654 43.629L73.0971 57.6977C73.1348 57.9092 73.1118 58.127 73.0309 58.326C72.95 58.525 72.8144 58.697 72.6398 58.8221Z" />
  </mask>
  <path d="M94.2747 82.54V60.3126C94.2747 59.9659 94.137 59.6333 93.892 59.3881C93.647 59.1429 93.3147 59.0051 92.9682 59.0051H75.5532C75.7372 58.422 75.7776 57.8029 75.6708 57.2008L73.3715 43.8513L82.7387 34.4896C83.2439 33.9878 83.5977 33.3537 83.7594 32.66C83.9212 31.9662 83.8844 31.2409 83.6532 30.5671C83.4419 29.9172 83.0536 29.3392 82.532 28.898C82.0104 28.4569 81.3762 28.1701 80.7006 28.0698L67.8844 26.3178L62.2927 14.0796C62.0022 13.4581 61.5407 12.9323 60.9622 12.564C60.3837 12.1956 59.7123 12 59.0266 12C58.341 12 57.6695 12.1956 57.0911 12.564C56.5126 12.9323 56.051 13.4581 55.7605 14.0796L50.1166 26.3178L37.3265 28.1091C36.6509 28.2093 36.0167 28.4961 35.4951 28.9373C34.9735 29.3784 34.5852 29.9565 34.3739 30.6064C34.1427 31.2801 34.1059 32.0055 34.2677 32.6992C34.4294 33.3929 34.7832 34.027 35.2884 34.5289L44.6295 43.8513L42.3302 57.2008C42.2234 57.8029 42.2637 58.422 42.4477 59.0051H25.0327C24.6863 59.0051 24.354 59.1429 24.1089 59.3881C23.8639 59.6333 23.7263 59.9659 23.7263 60.3126V64.2351C23.7263 64.5819 23.8639 64.9145 24.1089 65.1597C24.354 65.4049 24.6863 65.5426 25.0327 65.5426C25.3792 65.5426 25.7115 65.4049 25.9565 65.1597C26.2016 64.9145 26.3392 64.5819 26.3392 64.2351V61.6201H91.6618V82.54H82.5166C82.1701 82.54 81.8378 82.6778 81.5928 82.923C81.3478 83.1682 81.2102 83.5008 81.2102 83.8475C81.2102 84.1943 81.3478 84.5269 81.5928 84.7721C81.8378 85.0173 82.1701 85.155 82.5166 85.155H94.2747C94.9677 85.155 95.6323 85.4305 96.1223 85.9209C96.6123 86.4114 96.8876 87.0765 96.8876 87.77V90.385H21.1134V87.77C21.1134 87.0765 21.3887 86.4114 21.8787 85.9209C22.3687 85.4305 23.0333 85.155 23.7263 85.155H73.3715C73.7179 85.155 74.0502 85.0173 74.2953 84.7721C74.5403 84.5269 74.6779 84.1943 74.6779 83.8475C74.6779 83.5008 74.5403 83.1682 74.2953 82.923C74.0502 82.6778 73.7179 82.54 73.3715 82.54H26.3392V68.1576C26.3392 67.8108 26.2016 67.4783 25.9565 67.2331C25.7115 66.9879 25.3792 66.8501 25.0327 66.8501C24.6863 66.8501 24.354 66.9879 24.1089 67.2331C23.8639 67.4783 23.7263 67.8108 23.7263 68.1576V82.54C22.3403 82.54 21.0111 83.0911 20.0311 84.0719C19.0511 85.0527 18.5005 86.3829 18.5005 87.77V91.6925C18.5005 92.0393 18.6381 92.3718 18.8831 92.6171C19.1281 92.8623 19.4604 93 19.8069 93H98.194C98.5405 93 98.8728 92.8623 99.1178 92.6171C99.3628 92.3718 99.5005 92.0393 99.5005 91.6925V87.77C99.5005 86.3829 98.9499 85.0527 97.9699 84.0719C96.9899 83.0911 95.6607 82.54 94.2747 82.54ZM51.4623 59.0051L59.0005 54.7427L66.5387 59.0051H51.4623ZM72.6398 58.8221C72.4918 58.9239 72.3164 58.9783 72.1369 58.9783C71.9573 58.9783 71.7819 58.9239 71.6339 58.8221L59.6407 52.0493C59.442 51.9345 59.2168 51.8741 58.9874 51.8741C58.7581 51.8741 58.5328 51.9345 58.3342 52.0493L46.3671 58.8744C46.2191 58.9762 46.0437 59.0306 45.8641 59.0306C45.6845 59.0306 45.5092 58.9762 45.3611 58.8744C45.1773 58.7454 45.0358 58.5648 44.9544 58.3553C44.873 58.1459 44.8554 57.9171 44.9039 57.6977L47.3469 43.6682C47.3829 43.4612 47.3684 43.2484 47.3047 43.0482C47.241 42.8479 47.13 42.6659 46.9811 42.5176L37.1305 32.6722C36.9585 32.5155 36.8351 32.3127 36.7749 32.0879C36.7147 31.8631 36.7202 31.6257 36.7908 31.4039C36.8459 31.2148 36.9539 31.0454 37.102 30.9156C37.2502 30.7859 37.4323 30.7013 37.6269 30.6717L51.1618 28.7759C51.3784 28.7458 51.584 28.6619 51.7597 28.5317C51.9355 28.4014 52.0758 28.2292 52.1677 28.0306L58.086 15.1649C58.162 14.985 58.2892 14.8315 58.4519 14.7236C58.6145 14.6157 58.8053 14.5582 59.0005 14.5582C59.1956 14.5582 59.3864 14.6157 59.5491 14.7236C59.7117 14.8315 59.839 14.985 59.915 15.1649L65.8071 28.0306C65.8991 28.2292 66.0393 28.4014 66.2151 28.5317C66.3909 28.6619 66.5965 28.7458 66.8131 28.7759L80.3087 30.6717C80.5033 30.7013 80.6855 30.7859 80.8336 30.9156C80.9818 31.0454 81.0898 31.2148 81.1448 31.4039C81.2156 31.6144 81.2274 31.8401 81.179 32.0568C81.1307 32.2734 81.024 32.4727 80.8705 32.633L71.0198 42.4784C70.8709 42.6267 70.76 42.8086 70.6963 43.0089C70.6326 43.2092 70.6181 43.4219 70.654 43.629L73.0971 57.6977C73.1348 57.9092 73.1118 58.127 73.0309 58.326C72.95 58.525 72.8144 58.697 72.6398 58.8221Z" fill="white" />
  <path d="M94.2747 82.54V60.3126C94.2747 59.9659 94.137 59.6333 93.892 59.3881C93.647 59.1429 93.3147 59.0051 92.9682 59.0051H75.5532C75.7372 58.422 75.7776 57.8029 75.6708 57.2008L73.3715 43.8513L82.7387 34.4896C83.2439 33.9878 83.5977 33.3537 83.7594 32.66C83.9212 31.9662 83.8844 31.2409 83.6532 30.5671C83.4419 29.9172 83.0536 29.3392 82.532 28.898C82.0104 28.4569 81.3762 28.1701 80.7006 28.0698L67.8844 26.3178L62.2927 14.0796C62.0022 13.4581 61.5407 12.9323 60.9622 12.564C60.3837 12.1956 59.7123 12 59.0266 12C58.341 12 57.6695 12.1956 57.0911 12.564C56.5126 12.9323 56.051 13.4581 55.7605 14.0796L50.1166 26.3178L37.3265 28.1091C36.6509 28.2093 36.0167 28.4961 35.4951 28.9373C34.9735 29.3784 34.5852 29.9565 34.3739 30.6064C34.1427 31.2801 34.1059 32.0055 34.2677 32.6992C34.4294 33.3929 34.7832 34.027 35.2884 34.5289L44.6295 43.8513L42.3302 57.2008C42.2234 57.8029 42.2637 58.422 42.4477 59.0051H25.0327C24.6863 59.0051 24.354 59.1429 24.1089 59.3881C23.8639 59.6333 23.7263 59.9659 23.7263 60.3126V64.2351C23.7263 64.5819 23.8639 64.9145 24.1089 65.1597C24.354 65.4049 24.6863 65.5426 25.0327 65.5426C25.3792 65.5426 25.7115 65.4049 25.9565 65.1597C26.2016 64.9145 26.3392 64.5819 26.3392 64.2351V61.6201H91.6618V82.54H82.5166C82.1701 82.54 81.8378 82.6778 81.5928 82.923C81.3478 83.1682 81.2102 83.5008 81.2102 83.8475C81.2102 84.1943 81.3478 84.5269 81.5928 84.7721C81.8378 85.0173 82.1701 85.155 82.5166 85.155H94.2747C94.9677 85.155 95.6323 85.4305 96.1223 85.9209C96.6123 86.4114 96.8876 87.0765 96.8876 87.77V90.385H21.1134V87.77C21.1134 87.0765 21.3887 86.4114 21.8787 85.9209C22.3687 85.4305 23.0333 85.155 23.7263 85.155H73.3715C73.7179 85.155 74.0502 85.0173 74.2953 84.7721C74.5403 84.5269 74.6779 84.1943 74.6779 83.8475C74.6779 83.5008 74.5403 83.1682 74.2953 82.923C74.0502 82.6778 73.7179 82.54 73.3715 82.54H26.3392V68.1576C26.3392 67.8108 26.2016 67.4783 25.9565 67.2331C25.7115 66.9879 25.3792 66.8501 25.0327 66.8501C24.6863 66.8501 24.354 66.9879 24.1089 67.2331C23.8639 67.4783 23.7263 67.8108 23.7263 68.1576V82.54C22.3403 82.54 21.0111 83.0911 20.0311 84.0719C19.0511 85.0527 18.5005 86.3829 18.5005 87.77V91.6925C18.5005 92.0393 18.6381 92.3718 18.8831 92.6171C19.1281 92.8623 19.4604 93 19.8069 93H98.194C98.5405 93 98.8728 92.8623 99.1178 92.6171C99.3628 92.3718 99.5005 92.0393 99.5005 91.6925V87.77C99.5005 86.3829 98.9499 85.0527 97.9699 84.0719C96.9899 83.0911 95.6607 82.54 94.2747 82.54ZM51.4623 59.0051L59.0005 54.7427L66.5387 59.0051H51.4623ZM72.6398 58.8221C72.4918 58.9239 72.3164 58.9783 72.1369 58.9783C71.9573 58.9783 71.7819 58.9239 71.6339 58.8221L59.6407 52.0493C59.442 51.9345 59.2168 51.8741 58.9874 51.8741C58.7581 51.8741 58.5328 51.9345 58.3342 52.0493L46.3671 58.8744C46.2191 58.9762 46.0437 59.0306 45.8641 59.0306C45.6845 59.0306 45.5092 58.9762 45.3611 58.8744C45.1773 58.7454 45.0358 58.5648 44.9544 58.3553C44.873 58.1459 44.8554 57.9171 44.9039 57.6977L47.3469 43.6682C47.3829 43.4612 47.3684 43.2484 47.3047 43.0482C47.241 42.8479 47.13 42.6659 46.9811 42.5176L37.1305 32.6722C36.9585 32.5155 36.8351 32.3127 36.7749 32.0879C36.7147 31.8631 36.7202 31.6257 36.7908 31.4039C36.8459 31.2148 36.9539 31.0454 37.102 30.9156C37.2502 30.7859 37.4323 30.7013 37.6269 30.6717L51.1618 28.7759C51.3784 28.7458 51.584 28.6619 51.7597 28.5317C51.9355 28.4014 52.0758 28.2292 52.1677 28.0306L58.086 15.1649C58.162 14.985 58.2892 14.8315 58.4519 14.7236C58.6145 14.6157 58.8053 14.5582 59.0005 14.5582C59.1956 14.5582 59.3864 14.6157 59.5491 14.7236C59.7117 14.8315 59.839 14.985 59.915 15.1649L65.8071 28.0306C65.8991 28.2292 66.0393 28.4014 66.2151 28.5317C66.3909 28.6619 66.5965 28.7458 66.8131 28.7759L80.3087 30.6717C80.5033 30.7013 80.6855 30.7859 80.8336 30.9156C80.9818 31.0454 81.0898 31.2148 81.1448 31.4039C81.2156 31.6144 81.2274 31.8401 81.179 32.0568C81.1307 32.2734 81.024 32.4727 80.8705 32.633L71.0198 42.4784C70.8709 42.6267 70.76 42.8086 70.6963 43.0089C70.6326 43.2092 70.6181 43.4219 70.654 43.629L73.0971 57.6977C73.1348 57.9092 73.1118 58.127 73.0309 58.326C72.95 58.525 72.8144 58.697 72.6398 58.8221Z" stroke="white" stroke-width="1.2" mask="url(#path-2-outside-1_1253_305)" />
  <path d="M80.1579 84C80.5138 84 80.8552 83.8851 81.1069 83.6805C81.3586 83.4759 81.5 83.1984 81.5 82.9091C81.5 82.6198 81.3586 82.3423 81.1069 82.1377C80.8552 81.9331 80.5138 81.8182 80.1579 81.8182H78.8158C78.4598 81.8182 78.1185 81.9331 77.8668 82.1377C77.6151 82.3423 77.4737 82.6198 77.4737 82.9091C77.4737 83.1984 77.6151 83.4759 77.8668 83.6805C78.1185 83.8851 78.4598 84 78.8158 84H80.1579ZM46.6053 72H31.8421C31.4862 72 31.1448 72.1149 30.8931 72.3195C30.6414 72.5241 30.5 72.8016 30.5 73.0909C30.5 73.3802 30.6414 73.6577 30.8931 73.8623C31.1448 74.0669 31.4862 74.1818 31.8421 74.1818H46.6053C46.9612 74.1818 47.3026 74.0669 47.5543 73.8623C47.806 73.6577 47.9474 73.3802 47.9474 73.0909C47.9474 72.8016 47.806 72.5241 47.5543 72.3195C47.3026 72.1149 46.9612 72 46.6053 72ZM31.8421 78.5455H41.2368C41.5928 78.5455 41.9342 78.4305 42.1859 78.2259C42.4375 78.0214 42.5789 77.7439 42.5789 77.4545C42.5789 77.1652 42.4375 76.8877 42.1859 76.6832C41.9342 76.4786 41.5928 76.3636 41.2368 76.3636H31.8421C31.4862 76.3636 31.1448 76.4786 30.8931 76.6832C30.6414 76.8877 30.5 77.1652 30.5 77.4545C30.5 77.7439 30.6414 78.0214 30.8931 78.2259C31.1448 78.4305 31.4862 78.5455 31.8421 78.5455ZM46.6053 76.3636H45.2632C44.9072 76.3636 44.5658 76.4786 44.3141 76.6832C44.0625 76.8877 43.9211 77.1652 43.9211 77.4545C43.9211 77.7439 44.0625 78.0214 44.3141 78.2259C44.5658 78.4305 44.9072 78.5455 45.2632 78.5455H46.6053C46.9612 78.5455 47.3026 78.4305 47.5543 78.2259C47.806 78.0214 47.9474 77.7439 47.9474 77.4545C47.9474 77.1652 47.806 76.8877 47.5543 76.6832C47.3026 76.4786 46.9612 76.3636 46.6053 76.3636Z" fill="white" />
</svg>