<svg width="120" height="120" viewBox="0 0 120 120" fill="none" xmlns="http://www.w3.org/2000/svg">
  <rect width="120" height="120" rx="60" fill="#8A85C5" />
  <path d="M67.429 42.2448H73.8803C74.3165 42.2448 74.7257 42.0473 75.0208 41.7116C75.3148 41.3771 75.4745 40.9309 75.4745 40.4724C75.4745 40.0139 75.3148 39.5677 75.0208 39.2332C74.7257 38.8975 74.3165 38.7 73.8803 38.7H67.429C66.9928 38.7 66.5837 38.8975 66.2886 39.2332C65.9946 39.5677 65.8348 40.0139 65.8348 40.4724C65.8348 40.9309 65.9946 41.3771 66.2886 41.7116C66.5837 42.0473 66.9928 42.2448 67.429 42.2448ZM36.1537 48.2516L36.3767 48.4476L36.1537 48.2516C35.8597 48.5861 35.7 49.0323 35.7 49.4908C35.7 49.9493 35.8597 50.3955 36.1537 50.73C36.4488 51.0657 36.858 51.2632 37.2942 51.2632H52.571C53.0072 51.2632 53.4163 51.0657 53.7114 50.73C54.0054 50.3955 54.1652 49.9493 54.1652 49.4908C54.1652 49.0323 54.0054 48.5861 53.7114 48.2516C53.4163 47.9159 53.0072 47.7184 52.571 47.7184H37.2942C36.858 47.7184 36.4488 47.9159 36.1537 48.2516ZM36.1537 66.2884L36.3767 66.4844L36.1537 66.2884C35.8597 66.6229 35.7 67.0691 35.7 67.5276C35.7 67.9861 35.8597 68.4323 36.1537 68.7668C36.4488 69.1025 36.858 69.3 37.2942 69.3H52.571C53.0072 69.3 53.4163 69.1025 53.7114 68.7668C54.0054 68.4323 54.1652 67.9861 54.1652 67.5276C54.1652 67.0691 54.0054 66.6229 53.7114 66.2884C53.4163 65.9527 53.0072 65.7552 52.571 65.7552H37.2942C36.858 65.7552 36.4488 65.9527 36.1537 66.2884ZM67.429 51.2632H82.7058C83.142 51.2632 83.5512 51.0657 83.8463 50.73C84.1403 50.3955 84.3 49.9493 84.3 49.4908C84.3 49.0323 84.1403 48.5861 83.8463 48.2516C83.5512 47.9159 83.142 47.7184 82.7058 47.7184H67.429C66.9928 47.7184 66.5837 47.9159 66.2886 48.2516C65.9946 48.5861 65.8348 49.0323 65.8348 49.4908C65.8348 49.9493 65.9946 50.3955 66.2886 50.73C66.5837 51.0657 66.9928 51.2632 67.429 51.2632ZM67.429 60.2816H82.7058C83.142 60.2816 83.5512 60.0841 83.8463 59.7484C84.1403 59.4139 84.3 58.9677 84.3 58.5092C84.3 58.0507 84.1403 57.6045 83.8463 57.27C83.5512 56.9343 83.142 56.7368 82.7058 56.7368H67.429C66.9928 56.7368 66.5837 56.9343 66.2886 57.27C65.9946 57.6045 65.8348 58.0507 65.8348 58.5092C65.8348 58.9677 65.9946 59.4139 66.2886 59.7484C66.5837 60.0841 66.9928 60.2816 67.429 60.2816ZM67.429 69.3H82.7058C83.142 69.3 83.5512 69.1025 83.8463 68.7668C84.1403 68.4323 84.3 67.9861 84.3 67.5276C84.3 67.0691 84.1403 66.6229 83.8463 66.2884C83.5512 65.9527 83.142 65.7552 82.7058 65.7552H67.429C66.9928 65.7552 66.5837 65.9527 66.2886 66.2884C65.9946 66.6229 65.8348 67.0691 65.8348 67.5276C65.8348 67.9861 65.9946 68.4323 66.2886 68.7668C66.5837 69.1025 66.9928 69.3 67.429 69.3ZM37.2942 42.2448H43.745C44.1812 42.2448 44.5904 42.0473 44.8855 41.7116C45.1795 41.3771 45.3392 40.9309 45.3392 40.4724C45.3392 40.0139 45.1795 39.5677 44.8855 39.2332C44.5904 38.8975 44.1812 38.7 43.745 38.7H37.2942C36.858 38.7 36.4488 38.8975 36.1537 39.2332C35.8597 39.5677 35.7 40.0139 35.7 40.4724C35.7 40.9309 35.8597 41.3771 36.1537 41.7116C36.4488 42.0473 36.858 42.2448 37.2942 42.2448ZM37.2942 60.2816H52.571C53.0072 60.2816 53.4163 60.0841 53.7114 59.7484C54.0054 59.4139 54.1652 58.9677 54.1652 58.5092C54.1652 58.0507 54.0054 57.6045 53.7114 57.27C53.4163 56.9343 53.0072 56.7368 52.571 56.7368H37.2942C36.858 56.7368 36.4488 56.9343 36.1537 57.27C35.8597 57.6045 35.7 58.0507 35.7 58.5092C35.7 58.9677 35.8597 59.4139 36.1537 59.7484C36.4488 60.0841 36.858 60.2816 37.2942 60.2816Z" fill="white" stroke="white" stroke-width="0.6" />
  <path d="M100.494 33.0728H100.499C100.977 33.081 101.427 33.2936 101.759 33.655C102.09 34.0154 102.28 34.4976 102.3 35.0015L102.301 35.0133H102.3V91.3629V91.3749L102.3 91.3749C102.28 91.8784 102.089 92.3602 101.758 92.7201C101.426 93.0809 100.976 93.2927 100.498 93.3L100.494 93.3L19.5073 93.3H19.5028C19.025 93.2927 18.5751 93.0809 18.243 92.7201C17.9117 92.3602 17.7207 91.8784 17.7007 91.3749L17.7003 91.3629H17.7005V35.0133V35.0015L17.7007 35.0015C17.7205 34.4976 17.9113 34.0154 18.2424 33.655C18.5743 33.2936 19.0242 33.081 19.5022 33.0729L19.5073 33.0728V33.0728H24.9971L24.9971 31.8546C24.9971 31.8545 24.9971 31.8544 24.9971 31.8542C24.9944 29.7114 25.7488 27.6488 27.1041 26.1188C28.4603 24.5876 30.3104 23.7131 32.2521 23.7L32.2541 23.7L50.3031 23.7H50.3052C51.1581 23.706 52.0028 23.8793 52.8006 24.2113C52.8009 24.2114 52.8011 24.2115 52.8014 24.2116L58.7035 26.635C58.7037 26.6351 58.704 26.6352 58.7042 26.6353C59.5427 26.9743 60.459 26.9725 61.2965 26.6303L67.1993 24.2143C67.1997 24.2142 67.2 24.214 67.2003 24.2139C67.998 23.8811 68.8425 23.7069 69.6954 23.7L69.6979 23.7L87.7468 23.7H87.7488C89.6906 23.7131 91.5406 24.5876 92.8969 26.1188C94.2522 27.6489 95.0067 29.7117 95.0039 31.8546M100.494 33.0728L94.7039 31.8542M100.494 33.0728H95.0039M100.494 33.0728L95.0039 33.3728V33.0728M95.0039 31.8546L94.7039 31.8542M95.0039 31.8546V31.8542H94.7039M95.0039 31.8546V33.0728M94.7039 31.8542V33.0728H95.0039M95.0039 36.8636V75.1162V75.1166C95.0028 76.1712 94.8153 77.2159 94.4517 78.1905C94.0881 79.1651 93.5551 80.0515 92.882 80.7978C92.2089 81.5441 91.4086 82.1358 90.5264 82.5367C89.6445 82.9375 88.6991 83.1394 87.7451 83.1295H69.7029C69.2606 83.1445 68.8231 83.2454 68.4098 83.4286L68.4033 83.4315L68.4033 83.4314L62.4984 85.8843L62.4959 85.8853C60.8824 86.5388 59.1129 86.532 57.5036 85.8661L57.5037 85.8661L57.6179 85.5887L57.5032 85.8659L95.0039 36.8636ZM95.0039 36.8636H98.853V89.5092H21.1479V36.8636H24.9971V75.1162L24.9971 75.1166C24.9982 76.1712 25.1857 77.2159 25.5493 78.1905C25.9129 79.1651 26.4458 80.0515 27.1189 80.7978C27.7921 81.5441 28.5923 82.1358 29.4746 82.5367C30.3565 82.9375 31.3019 83.1394 32.2559 83.1295L95.0039 36.8636ZM25.2971 33.3728H24.9971L25.2971 33.0728V33.3728ZM68.4019 27.7675L68.4053 27.7661C68.8202 27.5902 69.2583 27.4973 69.7001 27.4908H87.7452C88.7496 27.5017 89.7174 27.9571 90.4348 28.7712C91.1535 29.5868 91.5598 30.6944 91.5564 31.8534V31.8542V75.1162C91.5564 77.5244 89.831 79.3387 87.7468 79.3387H69.6979V79.3387L69.6918 79.3388C68.8379 79.3561 67.9941 79.5404 67.1985 79.8825C67.1979 79.8827 67.1973 79.883 67.1967 79.8833L61.7242 82.1603V30.4535C61.9863 30.38 62.2445 30.2903 62.4977 30.185C62.498 30.1849 62.4983 30.1848 62.4986 30.1846L68.4019 27.7675ZM28.4446 31.8542L28.4446 31.8534C28.4412 30.6944 28.8475 29.5868 29.5662 28.7712C30.2836 27.9571 31.2514 27.5017 32.2558 27.4908H50.3009C50.7426 27.4973 51.1806 27.5902 51.5955 27.7661L51.599 27.7675L57.5021 30.1835C57.5025 30.1837 57.5028 30.1838 57.5032 30.184C57.7563 30.2896 58.0146 30.3795 58.2768 30.4533V82.1604L52.8048 79.8843C52.8042 79.884 52.8035 79.8838 52.8029 79.8835C52.0073 79.541 51.1633 79.3564 50.3093 79.3388L50.3093 79.3387H50.3031H32.2541C30.1699 79.3387 28.4446 77.5244 28.4446 75.1162L28.4446 31.8542ZM50.2977 83.1295H50.3031V82.8295L50.2927 83.1293C50.2944 83.1294 50.2961 83.1294 50.2977 83.1295Z" fill="white" stroke="white" stroke-width="0.6" />
</svg>